HIERARCHY
ROOT Hips
{
  OFFSET 47.6147 84.0721 2.72629
  CHANNELS 6 Xposition Yposition Zposition Zrotation Xrotation Yrotation
  JOINT spine
  {
    OFFSET 0 6.2448 0.359107
    CHANNELS 3 Zrotation Xrotation Yrotation
    JOINT spine1
    {
      OFFSET 0 9.06941 0
      CHANNELS 3 Zrotation Xrotation Yrotation
      JOINT spine2
      {
        OFFSET 0 8.69014 0
        CHANNELS 3 Zrotation Xrotation Yrotation
        JOINT Neck
        {
          OFFSET 0 22.3112 1.06372
          CHANNELS 3 Zrotation Xrotation Yrotation
          JOINT Head
          {
            OFFSET 0 6.74081 0
            CHANNELS 3 Zrotation Xrotation Yrotation
            End Site
            {
              OFFSET 0 16.3165 -5.38097
            }
          }
        }
        JOINT RightShoulder
        {
          OFFSET -3.65916 9.38468 -0.509514
          CHANNELS 3 Zrotation Xrotation Yrotation
          JOINT RightArm
          {
            OFFSET 0 12.3089 0
            CHANNELS 3 Zrotation Xrotation Yrotation
            JOINT RightArmRoll
            {
              OFFSET 0 6.21375 0
              CHANNELS 3 Zrotation Xrotation Yrotation
              JOINT RightForeArm
              {
                OFFSET 0 18.0985 0
                CHANNELS 3 Zrotation Xrotation Yrotation
                JOINT RightForeArmRoll
                {
                  OFFSET 0 6.97279 0
                  CHANNELS 3 Zrotation Xrotation Yrotation
                  JOINT RightHand
                  {
                    OFFSET 0 13.9929 0
                    CHANNELS 3 Zrotation Xrotation Yrotation
                    End Site
                    {
                      OFFSET 0 0 0
                    }
                  }
                }
              }
            }
          }
        }
        JOINT LeftShoulder
        {
          OFFSET 3.65916 9.38468 -0.509514
          CHANNELS 3 Zrotation Xrotation Yrotation
          JOINT LeftArm
          {
            OFFSET 0 12.3089 0
            CHANNELS 3 Zrotation Xrotation Yrotation
            JOINT LeftArmRoll
            {
              OFFSET 0 6.21375 0
              CHANNELS 3 Zrotation Xrotation Yrotation
              JOINT LeftForeArm
              {
                OFFSET 0 18.0985 0
                CHANNELS 3 Zrotation Xrotation Yrotation
                JOINT LeftForeArmRoll
                {
                  OFFSET 0 6.97279 0
                  CHANNELS 3 Zrotation Xrotation Yrotation
                  JOINT LeftHand
                  {
                    OFFSET 0 13.9929 0
                    CHANNELS 3 Zrotation Xrotation Yrotation
                    End Site
                    {
                      OFFSET 0 0 0
                    }
                  }
                }
              }
            }
          }
        }
      }
    }
  }
  JOINT RightUpLeg
  {
    OFFSET -5.53516 -1.015 -0.851454
    CHANNELS 3 Zrotation Xrotation Yrotation
    JOINT RightUpLegRoll
    {
      OFFSET 0 16.4075 0
      CHANNELS 3 Zrotation Xrotation Yrotation
      JOINT RightLeg
      {
        OFFSET 0 -20.3181 0
        CHANNELS 3 Zrotation Xrotation Yrotation
        JOINT RightLegRoll
        {
          OFFSET 0 20.3846 0
          CHANNELS 3 Zrotation Xrotation Yrotation
          JOINT RightFoot
          {
            OFFSET 0 16.9668 0
            CHANNELS 3 Zrotation Xrotation Yrotation
            JOINT RightToeBase
            {
              OFFSET 0 14.1834 0
              CHANNELS 3 Zrotation Xrotation Yrotation
              End Site
              {
                OFFSET 0.0060118 6.86889 -0.791746
              }
            }
          }
        }
      }
    }
  }
  JOINT LeftUpLeg
  {
    OFFSET 5.53516 -1.015 -0.851454
    CHANNELS 3 Zrotation Xrotation Yrotation
    JOINT LeftUpLegRoll
    {
      OFFSET 0 16.4076 0
      CHANNELS 3 Zrotation Xrotation Yrotation
      JOINT LeftLeg
      {
        OFFSET 0 20.3181 0
        CHANNELS 3 Zrotation Xrotation Yrotation
        JOINT LeftLegRoll
        {
          OFFSET 0 20.5731 0
          CHANNELS 3 Zrotation Xrotation Yrotation
          JOINT LeftFoot
          {
            OFFSET 0 16.7783 0
            CHANNELS 3 Zrotation Xrotation Yrotation
            JOINT LeftToeBase
            {
              OFFSET 0 14.1834 0
              CHANNELS 3 Zrotation Xrotation Yrotation
              End Site
              {
                OFFSET -0.0269423 6.86889 -0.791746
              }
            }
          }
        }
      }
    }
  }
}
MOTION
Frames: 10
Frame Time: 0.00208333
45.3631 90.408 -0.382456 -0.0940968 7.72662 -1.51439 0.0248611 -2.1084 0.130953 0.0531927 -0.213935 0.259579 0.0500971 1.43113 0.258748 3.33128 -6.13211 -0.539471 -0.829094 3.72895 -0.0475588 62.8034 -4.71412 -3.14105 111.389 7.71879 5.82959 -1.63846e-006 3.45539e-007 1.06126e-005 11.9001 16.5033 -2.33305 2.08268e-007 -2.15617e-006 -3 8.02889 -4.95139 0.697665 -58.1027 -9.15749 5.66988 -116.858 8.48085 -7.28833 -1.38652e-014 -3.27995e-015 3.18055e-015 -7.64824 23.0729 2.19304 6.78216e-006 -4.97461e-006 3.00001 -8.02961 -4.95148 -0.697701 177.376 17.2826 -1.53834 180 7.01587e-015 179.112 -178.364 20.5663 178.56 3.76049e-006 -5.4225e-006 0.0612766 -17.3141 66.3108 18.2421 8.1023 24.7562 -3.7471 -172.463 16.4825 -3.54943 4.54188e-006 -4.6773e-006 -1.00634 0.208495 -25.748 1.24989 -5.4241e-006 -3.51181e-006 -0.318359 18.2259 67.7562 -19.333 -8.08128 24.4948 3.89266 
45.3723 90.2125 -0.406557 -0.0938197 7.72524 -1.50686 0.0234291 -2.10416 0.131089 0.0503273 -0.205458 0.259983 0.0472261 1.43961 0.2592 3.32963 -6.07148 -0.518633 -0.798045 3.68688 -0.0235236 62.7649 -4.62984 -3.08963 111.363 7.71959 5.77183 -1.63846e-006 3.45539e-007 1.06126e-005 11.9461 16.5455 -2.34228 2.08268e-007 -2.15617e-006 -3 8.02889 -4.95139 0.697665 -58.1209 -9.09631 5.63077 -116.738 8.56604 -7.19052 -7.20594e-015 -2.08724e-015 3.18055e-015 -7.74486 23.1211 2.21703 6.78216e-006 -4.97461e-006 3.00001 -8.02961 -4.95148 -0.697701 177.378 17.3398 -1.53408 180 7.01587e-015 179.114 -178.368 20.6998 178.558 3.76049e-006 -5.4225e-006 0.0542445 -17.2726 66.2398 18.1913 8.09636 24.6794 -3.7887 -172.435 16.6493 -3.5938 4.54188e-006 -4.6773e-006 -1.00653 0.211388 -26.134 1.26056 -5.4241e-006 -3.51181e-006 -0.325191 18.2374 67.7749 -19.3481 -8.07133 24.376 3.95747 
45.3397 90.0024 -0.440456 -0.0942311 7.72482 -1.49932 0.0221937 -2.10007 0.131379 0.0478587 -0.197286 0.260675 0.0447486 1.44778 0.259934 3.32655 -6.01129 -0.498111 -0.765588 3.64663 7.17169e-005 62.7247 -4.54734 -3.03915 111.339 7.72157 5.71295 -1.63846e-006 3.45539e-007 1.06126e-005 11.9925 16.5864 -2.35138 2.08268e-007 -2.15617e-006 -3 8.02889 -4.95139 0.697665 -58.1389 -9.03629 5.59244 -116.618 8.65318 -7.09213 -8.19987e-015 -8.94531e-016 3.18055e-015 -7.84081 23.1682 2.24082 6.78216e-006 -4.97461e-006 3.00001 -8.02961 -4.95148 -0.697701 177.382 17.4033 -1.5308 180 7.01587e-015 179.116 -178.371 20.854 178.554 3.76049e-006 -5.4225e-006 0.0484176 -17.2362 66.1778 18.147 8.09167 24.62 -3.82089 -172.406 16.8199 -3.63918 4.54188e-006 -4.6773e-006 -1.0068 0.21602 -26.5313 1.27207 -5.42409e-006 -3.51181e-006 -0.33217 18.2487 67.7934 -19.3632 -8.06342 24.2839 4.0076 
45.3518 89.7963 -0.450129 -0.0955868 7.72572 -1.49154 0.0212048 -2.09621 0.131872 0.0458884 -0.189561 0.261751 0.0427649 1.45551 0.261043 3.32255 -5.95146 -0.478249 -0.732316 3.60783 0.0229259 62.6835 -4.46754 -2.99018 111.314 7.72504 5.6531 -1.63846e-006 3.45539e-007 1.06126e-005 12.0393 16.6257 -2.3603 2.08268e-007 -2.15617e-006 -3 8.02889 -4.95139 0.697665 -58.1567 -8.97746 5.5549 -116.5 8.74254 -6.99319 -2.127e-014 -4.47266e-015 3.18055e-015 -7.93584 23.2137 2.26432 6.78216e-006 -4.97461e-006 3.00001 -8.02961 -4.95148 -0.697701 177.39 17.4749 -1.52886 180 7.01588e-015 179.118 -178.37 21.0347 178.549 3.76049e-006 -5.4225e-006 0.0442959 -17.2067 66.1283 18.1117 8.08882 24.5843 -3.84019 -172.376 16.9948 -3.68584 4.54188e-006 -4.6773e-006 -1.00719 0.222605 -26.9417 1.28454 -5.4241e-006 -3.51181e-006 -0.339304 18.2597 67.8115 -19.3779 -8.05859 24.2287 4.03764 
45.3252 89.556 -0.47859 -0.0981429 7.72829 -1.48328 0.0205125 -2.09264 0.132616 0.0445178 -0.182426 0.263304 0.0413755 1.46264 0.26262 3.31813 -5.89192 -0.459389 -0.698825 3.57011 0.0447379 62.6418 -4.39139 -2.9433 111.289 7.73034 5.59238 -1.63846e-006 3.45539e-007 1.06126e-005 12.0865 16.663 -2.36897 2.08268e-007 -2.15617e-006 -3 8.02889 -4.95139 0.697665 -58.1743 -8.91988 5.51819 -116.384 8.83435 -6.89373 4.87022e-015 1.78906e-015 3.18055e-015 -8.02972 23.2575 2.28745 6.78216e-006 -4.97461e-006 3.00001 -8.02961 -4.95148 -0.697701 177.401 17.5565 -1.52861 180 7.01588e-015 179.12 -178.365 21.2476 178.541 3.76049e-006 -5.4225e-006 0.0423796 -17.1861 66.0953 18.0876 8.08838 24.5789 -3.84312 -172.345 17.1746 -3.73407 4.54188e-006 -4.6773e-006 -1.00772 0.231363 -27.3666 1.29813 -5.42409e-006 -3.51181e-006 -0.346602 18.2701 67.8288 -19.3921 -8.05785 24.2203 4.0422 
45.3227 89.3415 -0.493463 -0.102156 7.73287 -1.4743 0.0201671 -2.08944 0.133663 0.0438484 -0.176021 0.265428 0.0406805 1.46905 0.264756 3.31379 -5.83258 -0.441874 -0.665707 3.53313 0.0652066 62.6 -4.31981 -2.89907 111.264 7.73779 5.53093 -1.63846e-006 3.45539e-007 1.06126e-005 12.1341 16.6978 -2.37733 2.08268e-007 -2.15617e-006 -3 8.02889 -4.95139 0.697665 -58.1915 -8.86359 5.48233 -116.269 8.92889 -6.79379 -1.83379e-014 -6.16232e-015 3.18055e-015 -8.12223 23.2992 2.3101 6.78216e-006 -4.97461e-006 3.00001 -8.02961 -4.95148 -0.697701 177.417 17.65 -1.53042 180 7.01588e-015 179.121 -178.356 21.4986 178.532 3.76049e-006 -5.4225e-006 0.0431687 -17.1762 66.0825 18.0775 8.09089 24.6103 -3.82616 -172.313 17.3599 -3.78416 4.54188e-006 -4.6773e-006 -1.00845 0.242523 -27.8075 1.31298 -5.4241e-006 -3.51181e-006 -0.354074 18.2797 67.8451 -19.4054 -8.06211 24.2688 4.0158 
45.294 89.1022 -0.526311 -0.107883 7.73983 -1.46437 0.0202184 -2.08668 0.135061 0.0439815 -0.170488 0.268217 0.0407803 1.47458 0.267544 3.31003 -5.77338 -0.426047 -0.633557 3.4965 0.0840307 62.5587 -4.25374 -2.85808 111.237 7.74771 5.46887 -1.63846e-006 3.45539e-007 1.06126e-005 12.182 16.7297 -2.38534 2.08268e-007 -2.15617e-006 -3 8.02889 -4.95139 0.697665 -58.2083 -8.80863 5.44735 -116.157 9.02642 -6.69339 -1.58034e-014 -4.37326e-015 6.36111e-015 -8.21314 23.3386 2.33219 6.78216e-006 -4.97461e-006 3.00001 -8.02961 -4.95148 -0.697701 177.438 17.7573 -1.53464 180 7.01588e-015 179.122 -178.341 21.7935 178.519 3.76049e-006 -5.4225e-006 0.0471635 -17.179 66.0935 18.0836 8.09678 24.6848 -3.78577 -172.279 17.5511 -3.83641 4.54188e-006 -4.6773e-006 -1.00941 0.256323 -28.2662 1.32925 -5.42409e-006 -3.51181e-006 -0.361728 18.2882 67.8601 -19.4177 -8.07204 24.3843 3.95291 
45.2979 88.8645 -0.524719 -0.11558 7.74951 -1.45325 0.0207167 -2.08442 0.136859 0.0450188 -0.165969 0.271766 0.0417753 1.4791 0.271077 3.30736 -5.71423 -0.41225 -0.60297 3.45986 0.100909 62.5185 -4.19413 -2.82088 111.208 7.76043 5.40633 -1.63846e-006 3.45539e-007 1.06126e-005 12.2304 16.7584 -2.39294 2.08268e-007 -2.15617e-006 -3 8.02889 -4.95139 0.697665 -58.2245 -8.75506 5.41328 -116.046 9.12718 -6.59256 5.31749e-015 1.39149e-015 3.18055e-015 -8.3022 23.3753 2.35362 6.78216e-006 -4.97461e-006 3.00001 -8.02961 -4.95148 -0.697701 177.466 17.8802 -1.54165 180 7.01588e-015 179.122 -178.32 22.1379 178.504 3.76049e-006 -5.42251e-006 0.054864 -17.1966 66.1322 18.1088 8.10633 24.8091 -3.71837 -172.243 17.7489 -3.8911 4.54188e-006 -4.6773e-006 -1.01063 0.273011 -28.7441 1.34708 -5.4241e-006 -3.51181e-006 -0.369572 18.2956 67.8735 -19.4287 -8.08798 24.5768 3.84788 
45.2671 88.5617 -0.547368 -0.125508 7.76227 -1.44071 0.0217121 -2.08274 0.139107 0.0470616 -0.162605 0.276168 0.0437661 1.48246 0.275446 3.30628 -5.65506 -0.400824 -0.574541 3.42286 0.115541 62.48 -4.1419 -2.78804 111.177 7.77628 5.34343 -1.63846e-006 3.45539e-007 1.06126e-005 12.2792 16.7835 -2.40005 2.08268e-007 -2.15617e-006 -3 8.02889 -4.95139 0.697665 -58.2401 -8.70291 5.38015 -115.939 9.23144 -6.49134 4.67144e-015 4.77083e-015 3.18055e-015 -8.38919 23.4091 2.37431 6.78216e-006 -4.97461e-006 3.00001 -8.02961 -4.95148 -0.697701 177.499 18.0207 -1.5518 180 7.01588e-015 179.121 -178.291 22.5379 178.484 3.76049e-006 -5.42251e-006 0.0667703 -17.2312 66.2023 18.1558 8.11964 24.9896 -3.62029 -172.205 17.9538 -3.94853 4.54188e-006 -4.6773e-006 -1.01215 0.292847 -29.2429 1.36666 -5.42409e-006 -3.51181e-006 -0.377616 18.3014 67.885 -19.4382 -8.10975 24.8563 3.69486 
45.2756 88.3321 -0.548952 -0.137923 7.77846 -1.42651 0.0232547 -2.08171 0.141854 0.0502118 -0.160538 0.281518 0.0468531 1.48453 0.280745 3.30731 -5.59578 -0.392113 -0.548864 3.38512 0.127625 62.4436 -4.09799 -2.76015 111.142 7.79559 5.28029 -1.63846e-006 3.45539e-007 1.06126e-005 12.3285 16.8045 -2.40663 2.08268e-007 -2.15617e-006 -3 8.02889 -4.95139 0.697665 -58.2551 -8.65224 5.34797 -115.834 9.33947 -6.38976 7.8023e-015 2.5842e-015 6.36111e-015 -8.47387 23.4396 2.39415 6.78216e-006 -4.97461e-006 3.00001 -8.02961 -4.95148 -0.697701 177.54 18.1806 -1.56547 180 7.01588e-015 179.12 -178.254 22.9991 178.461 3.76049e-006 -5.42252e-006 0.0833825 -17.2853 66.3074 18.2276 8.13649 25.2326 -3.48774 -172.165 18.1663 -4.00902 4.54188e-006 -4.6773e-006 -1.01402 0.316102 -29.764 1.38815 -5.42409e-006 -3.51181e-006 -0.385869 18.3056 67.8945 -19.4459 -8.13649 25.2327 3.48774 
